Coordinates
version=1
nRows=13
nColumns=38
inDegrees=no

Units are S.I. units (second, meters, Newtons, ...)
If the header above contains a line with 'inDegrees', this indicates whether rotational values are in degrees (yes) or radians (no).

endheader
time	pelvis_tilt	pelvis_list	pelvis_rotation	pelvis_tx	pelvis_ty	pelvis_tz	hip_flexion_r	hip_adduction_r	hip_rotation_r	knee_angle_r	ankle_angle_r	subtalar_angle_r	mtp_angle_r	hip_flexion_l	hip_adduction_l	hip_rotation_l	knee_angle_l	ankle_angle_l	subtalar_angle_l	mtp_angle_l	lumbar_extension	lumbar_bending	lumbar_rotation	arm_flex_r	arm_add_r	arm_rot_r	elbow_flex_r	pro_sup_r	wrist_flex_r	wrist_dev_r	arm_flex_l	arm_add_l	arm_rot_l	elbow_flex_l	pro_sup_l	wrist_flex_l	wrist_dev_l
0.58	0.0652106	1.40368	1.45089	0.697579	-0.196342	1.01557	0.0348742	-0.0795609	-0.042983	0.76249	-0.610658	0	0	0.477636	-0.0486474	-0.173391	0.406737	-0.137522	0	0	0.0753703	-0.0656139	0.0814346	-0.00225309	-0.205704	0.225183	0.508263	1.5708	0	0	-0.124519	-0.343799	0.602743	0.511163	1.06258	0	0
0.59	0.0595069	1.40728	1.44835	0.697196	-0.183636	1.01686	0.0613092	-0.0807608	-0.0215368	0.80948	-0.633675	0	0	0.461101	-0.0486219	-0.179956	0.412622	-0.124499	0	0	0.0704398	-0.0666476	0.0849304	-0.0017718	-0.203961	0.231595	0.498939	1.5708	0	0	-0.113623	-0.347975	0.619904	0.511232	1.05978	0	0
0.6	0.0621582	1.41073	1.43763	0.696822	-0.170922	1.01842	0.0870332	-0.0794043	-0.000198675	0.853161	-0.630546	0	0	0.442383	-0.0495838	-0.188216	0.414207	-0.112223	0	0	0.0664389	-0.0656143	0.0877968	-0.000817345	-0.202534	0.240254	0.488066	1.5708	0	0	-0.102776	-0.351455	0.636938	0.510756	1.05709	0	0
0.61	0.0724563	1.41382	1.42065	0.69633	-0.158218	1.02023	0.111576	-0.0764591	0.0184292	0.892973	-0.602223	0	0	0.422361	-0.0510748	-0.196986	0.411873	-0.102347	0	0	0.0635265	-0.0627604	0.0885858	0.000792638	-0.201347	0.251352	0.475698	1.5708	0	0	-0.092484	-0.354216	0.652556	0.509904	1.05593	0	0
0.62	0.0870992	1.41606	1.40169	0.695599	-0.145528	1.02219	0.135516	-0.0731901	0.032156	0.92926	-0.548562	0	0	0.402168	-0.0522458	-0.204719	0.406068	-0.0944814	0	0	0.0626342	-0.0587459	0.086159	0.00299166	-0.200941	0.268174	0.46179	1.5708	0	0	-0.083175	-0.356734	0.667676	0.509108	1.05555	0	0
0.63	0.106469	1.41753	1.38025	0.694651	-0.132876	1.02431	0.158905	-0.0697179	0.0412416	0.96093	-0.497831	0	0	0.382048	-0.053292	-0.20979	0.397417	-0.0901556	0	0	0.0629102	-0.0536241	0.0815116	0.00420692	-0.200811	0.283647	0.449127	1.5708	0	0	-0.0750175	-0.358119	0.677046	0.508464	1.05984	0	0
0.64	0.127766	1.41803	1.35892	0.693554	-0.120304	1.02653	0.182295	-0.0662578	0.046864	0.988258	-0.44772	0	0	0.362782	-0.0540683	-0.211556	0.386769	-0.0879064	0	0	0.064614	-0.0479769	0.0748493	0.00489885	-0.201212	0.300783	0.437243	1.5708	0	0	-0.0679883	-0.359078	0.681548	0.508721	1.06695	0	0
0.65	0.149322	1.41756	1.33955	0.692321	-0.107687	1.02882	0.205264	-0.0633954	0.0483169	1.00902	-0.408208	0	0	0.344469	-0.0543462	-0.209609	0.375015	-0.0877785	0	0	0.0678824	-0.0421122	0.0666395	0.00379111	-0.202034	0.317236	0.427406	1.5708	0	0	-0.0622849	-0.360055	0.681336	0.510831	1.07408	0	0
0.66	0.169806	1.4161	1.32319	0.691011	-0.0950565	1.03119	0.227809	-0.0610993	0.0466881	1.02326	-0.372742	0	0	0.327451	-0.0542434	-0.205794	0.363409	-0.0893889	0	0	0.0727389	-0.0362927	0.0562734	0.00178479	-0.20311	0.333827	0.41898	1.5708	0	0	-0.0585045	-0.361214	0.675611	0.514927	1.08086	0	0
0.67	0.191456	1.41539	1.30595	0.689747	-0.0826968	1.03372	0.248978	-0.0588674	0.0442372	1.03209	-0.340942	0	0	0.309896	-0.0546134	-0.204787	0.35251	-0.0926495	0	0	0.0761841	-0.0307911	0.0458446	-0.000253192	-0.204705	0.350315	0.412591	1.5708	0	0	-0.0547166	-0.362509	0.667245	0.519836	1.09095	0	0
0.68	0.215595	1.41606	1.28659	0.688505	-0.0704836	1.03644	0.267672	-0.0568682	0.0402692	1.03529	-0.315828	0	0	0.290499	-0.0549372	-0.20409	0.341599	-0.0961702	0	0	0.0775338	-0.0254894	0.036062	-0.00300747	-0.206796	0.365161	0.408585	1.5708	0	0	-0.050309	-0.364147	0.658004	0.526224	1.10037	0	0
0.69	0.243021	1.41845	1.26556	0.687188	-0.058402	1.03932	0.283174	-0.0555729	0.0335286	1.03342	-0.286687	0	0	0.268734	-0.0541898	-0.198376	0.329361	-0.101001	0	0	0.0761712	-0.0205305	0.0239274	-0.00452921	-0.208845	0.381093	0.405045	1.5708	0	0	-0.0474737	-0.365804	0.641494	0.535267	1.11124	0	0
0.7	0.274706	1.42061	1.24103	0.685826	-0.046441	1.04218	0.297623	-0.0539516	0.0256769	1.02697	-0.258338	0	0	0.246928	-0.0540448	-0.191485	0.316625	-0.106382	0	0	0.0743122	-0.014993	0.0110463	-0.00658093	-0.210811	0.392681	0.403301	1.5708	0	0	-0.0455704	-0.367339	0.621393	0.546307	1.12194	0	0
